<mxfile host="app.diagrams.net" modified="2021-01-05T19:54:47.388Z" agent="5.0 (X11; Linux x86_64) AppleWebKit/537.36 (KHTML, like Gecko) Chrome/87.0.4280.88 Safari/537.36" etag="4JEnZleFNgcx6ZnFxBbX" version="14.1.8" type="github" pages="2">
  <diagram id="C5RBs43oDa-KdzZeNtuy" name="Page-1">
    <mxGraphModel dx="868" dy="426" grid="1" gridSize="10" guides="1" tooltips="1" connect="1" arrows="1" fold="1" page="1" pageScale="1" pageWidth="827" pageHeight="1169" math="0" shadow="0">
      <root>
        <mxCell id="WIyWlLk6GJQsqaUBKTNV-0" />
        <mxCell id="WIyWlLk6GJQsqaUBKTNV-1" parent="WIyWlLk6GJQsqaUBKTNV-0" />
        <mxCell id="WIyWlLk6GJQsqaUBKTNV-2" value="" style="rounded=0;html=1;jettySize=auto;orthogonalLoop=1;fontSize=11;endArrow=block;endFill=0;endSize=8;strokeWidth=1;shadow=0;labelBackgroundColor=none;edgeStyle=orthogonalEdgeStyle;" parent="WIyWlLk6GJQsqaUBKTNV-1" source="WIyWlLk6GJQsqaUBKTNV-3" target="WIyWlLk6GJQsqaUBKTNV-6" edge="1">
          <mxGeometry relative="1" as="geometry" />
        </mxCell>
        <mxCell id="WIyWlLk6GJQsqaUBKTNV-3" value="start" style="rounded=1;whiteSpace=wrap;html=1;fontSize=12;glass=0;strokeWidth=1;shadow=0;" parent="WIyWlLk6GJQsqaUBKTNV-1" vertex="1">
          <mxGeometry x="260" y="70" width="120" height="40" as="geometry" />
        </mxCell>
        <mxCell id="WIyWlLk6GJQsqaUBKTNV-5" value="" style="edgeStyle=orthogonalEdgeStyle;rounded=0;html=1;jettySize=auto;orthogonalLoop=1;fontSize=11;endArrow=block;endFill=0;endSize=8;strokeWidth=1;shadow=0;labelBackgroundColor=none;" parent="WIyWlLk6GJQsqaUBKTNV-1" source="WIyWlLk6GJQsqaUBKTNV-6" target="WIyWlLk6GJQsqaUBKTNV-7" edge="1">
          <mxGeometry y="10" relative="1" as="geometry">
            <mxPoint as="offset" />
          </mxGeometry>
        </mxCell>
        <mxCell id="WIyWlLk6GJQsqaUBKTNV-6" value="Open Admin Login page" style="rhombus;whiteSpace=wrap;html=1;shadow=0;fontFamily=Helvetica;fontSize=12;align=center;strokeWidth=1;spacing=6;spacingTop=-4;" parent="WIyWlLk6GJQsqaUBKTNV-1" vertex="1">
          <mxGeometry x="270" y="160" width="100" height="80" as="geometry" />
        </mxCell>
        <mxCell id="tQV1vuun8izm12ymDAxY-4" style="edgeStyle=orthogonalEdgeStyle;rounded=0;orthogonalLoop=1;jettySize=auto;html=1;entryX=0.94;entryY=-0.033;entryDx=0;entryDy=0;entryPerimeter=0;" edge="1" parent="WIyWlLk6GJQsqaUBKTNV-1" source="WIyWlLk6GJQsqaUBKTNV-7" target="tQV1vuun8izm12ymDAxY-1">
          <mxGeometry relative="1" as="geometry">
            <mxPoint x="580" y="260" as="targetPoint" />
          </mxGeometry>
        </mxCell>
        <mxCell id="WIyWlLk6GJQsqaUBKTNV-7" value="Show admin login page" style="rounded=1;whiteSpace=wrap;html=1;fontSize=12;glass=0;strokeWidth=1;shadow=0;" parent="WIyWlLk6GJQsqaUBKTNV-1" vertex="1">
          <mxGeometry x="570" y="190" width="120" height="40" as="geometry" />
        </mxCell>
        <mxCell id="tQV1vuun8izm12ymDAxY-2" style="edgeStyle=orthogonalEdgeStyle;rounded=0;orthogonalLoop=1;jettySize=auto;html=1;" edge="1" parent="WIyWlLk6GJQsqaUBKTNV-1" source="tQV1vuun8izm12ymDAxY-1" target="tQV1vuun8izm12ymDAxY-3">
          <mxGeometry relative="1" as="geometry">
            <mxPoint x="600" y="420" as="targetPoint" />
          </mxGeometry>
        </mxCell>
        <mxCell id="tQV1vuun8izm12ymDAxY-1" value="Input Admin Information" style="rounded=1;whiteSpace=wrap;html=1;" vertex="1" parent="WIyWlLk6GJQsqaUBKTNV-1">
          <mxGeometry x="370" y="280" width="200" height="60" as="geometry" />
        </mxCell>
        <mxCell id="tQV1vuun8izm12ymDAxY-5" style="edgeStyle=orthogonalEdgeStyle;rounded=0;orthogonalLoop=1;jettySize=auto;html=1;" edge="1" parent="WIyWlLk6GJQsqaUBKTNV-1" source="tQV1vuun8izm12ymDAxY-3" target="tQV1vuun8izm12ymDAxY-6">
          <mxGeometry relative="1" as="geometry">
            <mxPoint x="680" y="500" as="targetPoint" />
          </mxGeometry>
        </mxCell>
        <mxCell id="tQV1vuun8izm12ymDAxY-3" value="Information&amp;nbsp;&lt;br&gt;true or not" style="rounded=1;whiteSpace=wrap;html=1;" vertex="1" parent="WIyWlLk6GJQsqaUBKTNV-1">
          <mxGeometry x="600" y="370" width="180" height="60" as="geometry" />
        </mxCell>
        <mxCell id="tQV1vuun8izm12ymDAxY-7" style="edgeStyle=orthogonalEdgeStyle;rounded=0;orthogonalLoop=1;jettySize=auto;html=1;" edge="1" parent="WIyWlLk6GJQsqaUBKTNV-1" source="tQV1vuun8izm12ymDAxY-6" target="tQV1vuun8izm12ymDAxY-8">
          <mxGeometry relative="1" as="geometry">
            <mxPoint x="690" y="590" as="targetPoint" />
          </mxGeometry>
        </mxCell>
        <mxCell id="tQV1vuun8izm12ymDAxY-9" value="" style="edgeStyle=orthogonalEdgeStyle;rounded=0;orthogonalLoop=1;jettySize=auto;html=1;" edge="1" parent="WIyWlLk6GJQsqaUBKTNV-1" source="tQV1vuun8izm12ymDAxY-6" target="tQV1vuun8izm12ymDAxY-3">
          <mxGeometry relative="1" as="geometry" />
        </mxCell>
        <mxCell id="tQV1vuun8izm12ymDAxY-6" value="Show Admin Web Page" style="rounded=1;whiteSpace=wrap;html=1;" vertex="1" parent="WIyWlLk6GJQsqaUBKTNV-1">
          <mxGeometry x="630" y="490" width="120" height="60" as="geometry" />
        </mxCell>
        <mxCell id="tQV1vuun8izm12ymDAxY-8" value="END" style="rounded=1;whiteSpace=wrap;html=1;" vertex="1" parent="WIyWlLk6GJQsqaUBKTNV-1">
          <mxGeometry x="630" y="590" width="120" height="60" as="geometry" />
        </mxCell>
        <mxCell id="tQV1vuun8izm12ymDAxY-10" value="YES" style="text;html=1;align=center;verticalAlign=middle;resizable=0;points=[];autosize=1;" vertex="1" parent="WIyWlLk6GJQsqaUBKTNV-1">
          <mxGeometry x="650" y="450" width="40" height="20" as="geometry" />
        </mxCell>
        <mxCell id="tQV1vuun8izm12ymDAxY-13" value="Activity diagram for admin" style="text;html=1;align=center;verticalAlign=middle;resizable=0;points=[];autosize=1;fontSize=24;" vertex="1" parent="WIyWlLk6GJQsqaUBKTNV-1">
          <mxGeometry x="210" y="20" width="290" height="30" as="geometry" />
        </mxCell>
      </root>
    </mxGraphModel>
  </diagram>
  <diagram id="WzIjsfX_rWCkBJTZGUSG" name="Page-2">
    <mxGraphModel dx="868" dy="426" grid="1" gridSize="10" guides="1" tooltips="1" connect="1" arrows="1" fold="1" page="1" pageScale="1" pageWidth="827" pageHeight="1169" math="0" shadow="0">
      <root>
        <mxCell id="nqzEVq6WPuQkMp7fxERS-0" />
        <mxCell id="nqzEVq6WPuQkMp7fxERS-1" parent="nqzEVq6WPuQkMp7fxERS-0" />
        <mxCell id="nqzEVq6WPuQkMp7fxERS-22" value="" style="ellipse;whiteSpace=wrap;html=1;aspect=fixed;fillColor=#FFFFFF;fontSize=24;" vertex="1" parent="nqzEVq6WPuQkMp7fxERS-1">
          <mxGeometry x="401" y="327" width="56" height="56" as="geometry" />
        </mxCell>
        <mxCell id="nqzEVq6WPuQkMp7fxERS-3" style="edgeStyle=orthogonalEdgeStyle;rounded=0;orthogonalLoop=1;jettySize=auto;html=1;fontSize=24;" edge="1" parent="nqzEVq6WPuQkMp7fxERS-1" source="nqzEVq6WPuQkMp7fxERS-2" target="nqzEVq6WPuQkMp7fxERS-4">
          <mxGeometry relative="1" as="geometry">
            <mxPoint x="210" y="180" as="targetPoint" />
          </mxGeometry>
        </mxCell>
        <mxCell id="nqzEVq6WPuQkMp7fxERS-24" style="edgeStyle=orthogonalEdgeStyle;rounded=0;orthogonalLoop=1;jettySize=auto;html=1;entryX=0.304;entryY=0.018;entryDx=0;entryDy=0;entryPerimeter=0;fontSize=24;" edge="1" parent="nqzEVq6WPuQkMp7fxERS-1" source="nqzEVq6WPuQkMp7fxERS-2" target="nqzEVq6WPuQkMp7fxERS-22">
          <mxGeometry relative="1" as="geometry" />
        </mxCell>
        <mxCell id="nqzEVq6WPuQkMp7fxERS-26" style="edgeStyle=orthogonalEdgeStyle;rounded=0;orthogonalLoop=1;jettySize=auto;html=1;fontSize=24;" edge="1" parent="nqzEVq6WPuQkMp7fxERS-1" source="nqzEVq6WPuQkMp7fxERS-2" target="nqzEVq6WPuQkMp7fxERS-27">
          <mxGeometry relative="1" as="geometry">
            <mxPoint x="610" y="180" as="targetPoint" />
          </mxGeometry>
        </mxCell>
        <mxCell id="nqzEVq6WPuQkMp7fxERS-2" value="Login" style="shape=hexagon;perimeter=hexagonPerimeter2;whiteSpace=wrap;html=1;fixedSize=1;fontSize=24;" vertex="1" parent="nqzEVq6WPuQkMp7fxERS-1">
          <mxGeometry x="350" y="140" width="120" height="80" as="geometry" />
        </mxCell>
        <mxCell id="nqzEVq6WPuQkMp7fxERS-5" style="edgeStyle=orthogonalEdgeStyle;rounded=0;orthogonalLoop=1;jettySize=auto;html=1;fontSize=24;" edge="1" parent="nqzEVq6WPuQkMp7fxERS-1" source="nqzEVq6WPuQkMp7fxERS-4" target="nqzEVq6WPuQkMp7fxERS-6">
          <mxGeometry relative="1" as="geometry">
            <mxPoint x="210" y="270" as="targetPoint" />
          </mxGeometry>
        </mxCell>
        <mxCell id="nqzEVq6WPuQkMp7fxERS-4" value="View Orders" style="rounded=1;whiteSpace=wrap;html=1;" vertex="1" parent="nqzEVq6WPuQkMp7fxERS-1">
          <mxGeometry x="150" y="150" width="120" height="60" as="geometry" />
        </mxCell>
        <mxCell id="nqzEVq6WPuQkMp7fxERS-8" style="edgeStyle=orthogonalEdgeStyle;rounded=0;orthogonalLoop=1;jettySize=auto;html=1;fontSize=24;" edge="1" parent="nqzEVq6WPuQkMp7fxERS-1" source="nqzEVq6WPuQkMp7fxERS-6">
          <mxGeometry relative="1" as="geometry">
            <mxPoint x="210" y="330" as="targetPoint" />
          </mxGeometry>
        </mxCell>
        <mxCell id="nqzEVq6WPuQkMp7fxERS-6" value="Check for offers" style="rounded=1;whiteSpace=wrap;html=1;" vertex="1" parent="nqzEVq6WPuQkMp7fxERS-1">
          <mxGeometry x="150" y="240" width="120" height="60" as="geometry" />
        </mxCell>
        <mxCell id="nqzEVq6WPuQkMp7fxERS-10" style="edgeStyle=orthogonalEdgeStyle;rounded=0;orthogonalLoop=1;jettySize=auto;html=1;fontSize=24;" edge="1" parent="nqzEVq6WPuQkMp7fxERS-1" source="nqzEVq6WPuQkMp7fxERS-7" target="nqzEVq6WPuQkMp7fxERS-11">
          <mxGeometry relative="1" as="geometry">
            <mxPoint x="220" y="430" as="targetPoint" />
          </mxGeometry>
        </mxCell>
        <mxCell id="nqzEVq6WPuQkMp7fxERS-7" value="&lt;font face=&quot;helvetica&quot;&gt;&lt;span style=&quot;font-size: 12px&quot;&gt;Confirm orders&lt;/span&gt;&lt;/font&gt;" style="rounded=1;whiteSpace=wrap;html=1;fontSize=24;" vertex="1" parent="nqzEVq6WPuQkMp7fxERS-1">
          <mxGeometry x="160" y="330" width="120" height="60" as="geometry" />
        </mxCell>
        <mxCell id="nqzEVq6WPuQkMp7fxERS-12" style="edgeStyle=orthogonalEdgeStyle;rounded=0;orthogonalLoop=1;jettySize=auto;html=1;fontSize=24;" edge="1" parent="nqzEVq6WPuQkMp7fxERS-1" source="nqzEVq6WPuQkMp7fxERS-11" target="nqzEVq6WPuQkMp7fxERS-13">
          <mxGeometry relative="1" as="geometry">
            <mxPoint x="220" y="520" as="targetPoint" />
          </mxGeometry>
        </mxCell>
        <mxCell id="nqzEVq6WPuQkMp7fxERS-11" value="Recieve Coupons" style="rounded=1;whiteSpace=wrap;html=1;" vertex="1" parent="nqzEVq6WPuQkMp7fxERS-1">
          <mxGeometry x="160" y="420" width="120" height="60" as="geometry" />
        </mxCell>
        <mxCell id="nqzEVq6WPuQkMp7fxERS-15" style="edgeStyle=orthogonalEdgeStyle;rounded=0;orthogonalLoop=1;jettySize=auto;html=1;fontSize=24;" edge="1" parent="nqzEVq6WPuQkMp7fxERS-1" source="nqzEVq6WPuQkMp7fxERS-13" target="nqzEVq6WPuQkMp7fxERS-16">
          <mxGeometry relative="1" as="geometry">
            <mxPoint x="360" y="540" as="targetPoint" />
          </mxGeometry>
        </mxCell>
        <mxCell id="nqzEVq6WPuQkMp7fxERS-13" value="Provide time required" style="rounded=1;whiteSpace=wrap;html=1;" vertex="1" parent="nqzEVq6WPuQkMp7fxERS-1">
          <mxGeometry x="160" y="510" width="130" height="60" as="geometry" />
        </mxCell>
        <mxCell id="nqzEVq6WPuQkMp7fxERS-23" style="edgeStyle=orthogonalEdgeStyle;rounded=0;orthogonalLoop=1;jettySize=auto;html=1;fontSize=24;" edge="1" parent="nqzEVq6WPuQkMp7fxERS-1" source="nqzEVq6WPuQkMp7fxERS-16">
          <mxGeometry relative="1" as="geometry">
            <mxPoint x="430" y="390" as="targetPoint" />
          </mxGeometry>
        </mxCell>
        <mxCell id="nqzEVq6WPuQkMp7fxERS-16" value="Notify Customer On Order Completion" style="rounded=1;whiteSpace=wrap;html=1;" vertex="1" parent="nqzEVq6WPuQkMp7fxERS-1">
          <mxGeometry x="350" y="520" width="260" height="40" as="geometry" />
        </mxCell>
        <mxCell id="nqzEVq6WPuQkMp7fxERS-17" value="yes" style="text;html=1;align=center;verticalAlign=middle;resizable=0;points=[];autosize=1;fontSize=24;" vertex="1" parent="nqzEVq6WPuQkMp7fxERS-1">
          <mxGeometry x="285" y="155" width="50" height="30" as="geometry" />
        </mxCell>
        <mxCell id="nqzEVq6WPuQkMp7fxERS-18" value="" style="ellipse;whiteSpace=wrap;html=1;aspect=fixed;fontSize=24;fillColor=#000000;" vertex="1" parent="nqzEVq6WPuQkMp7fxERS-1">
          <mxGeometry x="414" y="340" width="30" height="30" as="geometry" />
        </mxCell>
        <mxCell id="nqzEVq6WPuQkMp7fxERS-25" value="yes" style="text;html=1;align=center;verticalAlign=middle;resizable=0;points=[];autosize=1;fontSize=24;" vertex="1" parent="nqzEVq6WPuQkMp7fxERS-1">
          <mxGeometry x="414" y="255" width="50" height="30" as="geometry" />
        </mxCell>
        <mxCell id="nqzEVq6WPuQkMp7fxERS-28" style="edgeStyle=orthogonalEdgeStyle;rounded=0;orthogonalLoop=1;jettySize=auto;html=1;fontSize=24;" edge="1" parent="nqzEVq6WPuQkMp7fxERS-1" source="nqzEVq6WPuQkMp7fxERS-27" target="nqzEVq6WPuQkMp7fxERS-29">
          <mxGeometry relative="1" as="geometry">
            <mxPoint x="595" y="260" as="targetPoint" />
          </mxGeometry>
        </mxCell>
        <mxCell id="nqzEVq6WPuQkMp7fxERS-27" value="Register" style="rounded=1;whiteSpace=wrap;html=1;" vertex="1" parent="nqzEVq6WPuQkMp7fxERS-1">
          <mxGeometry x="550" y="150" width="90" height="50" as="geometry" />
        </mxCell>
        <mxCell id="nqzEVq6WPuQkMp7fxERS-30" style="edgeStyle=orthogonalEdgeStyle;rounded=0;orthogonalLoop=1;jettySize=auto;html=1;fontSize=24;" edge="1" parent="nqzEVq6WPuQkMp7fxERS-1" source="nqzEVq6WPuQkMp7fxERS-29" target="nqzEVq6WPuQkMp7fxERS-31">
          <mxGeometry relative="1" as="geometry">
            <mxPoint x="587.5" y="310" as="targetPoint" />
          </mxGeometry>
        </mxCell>
        <mxCell id="nqzEVq6WPuQkMp7fxERS-29" value="Provide information" style="rounded=1;whiteSpace=wrap;html=1;" vertex="1" parent="nqzEVq6WPuQkMp7fxERS-1">
          <mxGeometry x="535" y="230" width="105" height="40" as="geometry" />
        </mxCell>
        <mxCell id="nqzEVq6WPuQkMp7fxERS-32" style="edgeStyle=orthogonalEdgeStyle;rounded=0;orthogonalLoop=1;jettySize=auto;html=1;entryX=1;entryY=0.663;entryDx=0;entryDy=0;entryPerimeter=0;fontSize=24;" edge="1" parent="nqzEVq6WPuQkMp7fxERS-1" source="nqzEVq6WPuQkMp7fxERS-31" target="nqzEVq6WPuQkMp7fxERS-2">
          <mxGeometry relative="1" as="geometry" />
        </mxCell>
        <mxCell id="nqzEVq6WPuQkMp7fxERS-31" value="Provide Water Can details" style="rounded=1;whiteSpace=wrap;html=1;" vertex="1" parent="nqzEVq6WPuQkMp7fxERS-1">
          <mxGeometry x="535" y="300" width="120" height="50" as="geometry" />
        </mxCell>
        <mxCell id="nqzEVq6WPuQkMp7fxERS-33" value="No" style="text;html=1;align=center;verticalAlign=middle;resizable=0;points=[];autosize=1;fontSize=24;" vertex="1" parent="nqzEVq6WPuQkMp7fxERS-1">
          <mxGeometry x="480" y="150" width="50" height="30" as="geometry" />
        </mxCell>
        <mxCell id="nqzEVq6WPuQkMp7fxERS-34" value="Activity Diagram For User" style="text;html=1;strokeColor=none;fillColor=none;align=center;verticalAlign=middle;whiteSpace=wrap;rounded=0;fontSize=24;" vertex="1" parent="nqzEVq6WPuQkMp7fxERS-1">
          <mxGeometry x="230" y="30" width="330" height="30" as="geometry" />
        </mxCell>
      </root>
    </mxGraphModel>
  </diagram>
</mxfile>
